STARTFONT 2.3
FONT -FontForge-Syncopate-Book-R-Normal--8-80-72-72-P-59-ISO10646-1
SIZE 8 72 72  2
FONTBOUNDINGBOX 15 10 -2 -2
COMMENT "Generated by fontforge, http://fontforge.sourceforge.net"
COMMENT "Copyright (c) 2010 by Brian J. Bonislawsky DBA Astigmatic (AOETI). All rights reserved. Available under the Apache 2.0 licence.http://www.apache.org/licenses/LICENSE-2.0.html"
STARTPROPERTIES 40
FOUNDRY "FontForge"
FAMILY_NAME "Syncopate"
WEIGHT_NAME "Book"
SLANT "R"
SETWIDTH_NAME "Normal"
ADD_STYLE_NAME ""
PIXEL_SIZE 8
POINT_SIZE 80
RESOLUTION_X 72
RESOLUTION_Y 72
SPACING "P"
AVERAGE_WIDTH 59
CHARSET_REGISTRY "ISO10646"
CHARSET_ENCODING "1"
FONTNAME_REGISTRY ""
CHARSET_COLLECTIONS "ISO8859-2 ISO8859-9 ISO8859-4 ISO10646-1"
BITS_PER_PIXEL 2
FONT_NAME "Syncopate-Regular"
FACE_NAME "Syncopate Regular"
COPYRIGHT "Copyright (c) 2010 by Brian J. Bonislawsky DBA Astigmatic (AOETI). All rights reserved. Available under the Apache 2.0 licence.http://www.apache.org/licenses/LICENSE-2.0.html"
FONT_VERSION "001.001"
FONT_ASCENT 6
FONT_DESCENT 2
UNDERLINE_POSITION -1
UNDERLINE_THICKNESS 1
X_HEIGHT 5
CAP_HEIGHT 5
RAW_ASCENT 799
RAW_DESCENT 200
NORM_SPACE 3
RELATIVE_WEIGHT 40
RELATIVE_SETWIDTH 70
SUPERSCRIPT_X 0
SUPERSCRIPT_Y 2
SUPERSCRIPT_SIZE 1
SUBSCRIPT_X 0
SUBSCRIPT_Y 2
SUBSCRIPT_SIZE 1
AVG_LOWERCASE_WIDTH 67
AVG_UPPERCASE_WIDTH 65
ENDPROPERTIES
CHARS 370
STARTCHAR space
ENCODING 32
SWIDTH 375 0
DWIDTH 3 0
BBX 1 1 0 0
BITMAP
00
ENDCHAR
STARTCHAR exclam
ENCODING 33
SWIDTH 274 0
DWIDTH 2 0
BBX 2 5 0 0
BITMAP
50
10
10
00
10
ENDCHAR
STARTCHAR quotedbl
ENCODING 34
SWIDTH 290 0
DWIDTH 2 0
BBX 2 2 0 4
BITMAP
50
50
ENDCHAR
STARTCHAR numbersign
ENCODING 35
SWIDTH 701 0
DWIDTH 6 0
BBX 5 5 0 0
BITMAP
0440
2640
1100
6640
1100
ENDCHAR
STARTCHAR dollar
ENCODING 36
SWIDTH 767 0
DWIDTH 6 0
BBX 6 6 0 0
BITMAP
0540
5540
2500
0640
0110
5A40
ENDCHAR
STARTCHAR percent
ENCODING 37
SWIDTH 992 0
DWIDTH 8 0
BBX 7 6 0 0
BITMAP
1400
4510
5540
1154
0544
1458
ENDCHAR
STARTCHAR ampersand
ENCODING 38
SWIDTH 926 0
DWIDTH 7 0
BBX 7 6 0 0
BITMAP
0500
1080
1540
1504
5154
2564
ENDCHAR
STARTCHAR quotesingle
ENCODING 39
SWIDTH 140 0
DWIDTH 1 0
BBX 1 2 0 4
BITMAP
40
40
ENDCHAR
STARTCHAR parenleft
ENCODING 40
SWIDTH 420 0
DWIDTH 3 0
BBX 3 7 0 -1
BITMAP
14
20
50
50
10
20
04
ENDCHAR
STARTCHAR parenright
ENCODING 41
SWIDTH 420 0
DWIDTH 3 0
BBX 2 7 1 -1
BITMAP
40
50
20
20
10
40
40
ENDCHAR
STARTCHAR asterisk
ENCODING 42
SWIDTH 503 0
DWIDTH 4 0
BBX 4 2 0 3
BITMAP
55
28
ENDCHAR
STARTCHAR plus
ENCODING 43
SWIDTH 634 0
DWIDTH 5 0
BBX 4 4 1 1
BITMAP
10
10
65
10
ENDCHAR
STARTCHAR comma
ENCODING 44
SWIDTH 185 0
DWIDTH 1 0
BBX 1 2 0 -1
BITMAP
40
40
ENDCHAR
STARTCHAR hyphen
ENCODING 45
SWIDTH 540 0
DWIDTH 4 0
BBX 4 1 0 2
BITMAP
55
ENDCHAR
STARTCHAR period
ENCODING 46
SWIDTH 185 0
DWIDTH 1 0
BBX 1 1 0 0
BITMAP
80
ENDCHAR
STARTCHAR slash
ENCODING 47
SWIDTH 500 0
DWIDTH 4 0
BBX 4 6 0 0
BITMAP
01
04
04
10
10
50
ENDCHAR
STARTCHAR zero
ENCODING 48
SWIDTH 833 0
DWIDTH 7 0
BBX 6 6 0 0
BITMAP
0540
2050
4010
4010
5020
1550
ENDCHAR
STARTCHAR one
ENCODING 49
SWIDTH 339 0
DWIDTH 3 0
BBX 2 6 0 0
BITMAP
10
60
10
10
10
10
ENDCHAR
STARTCHAR two
ENCODING 50
SWIDTH 728 0
DWIDTH 6 0
BBX 5 6 0 0
BITMAP
1500
4080
0040
0140
0500
6540
ENDCHAR
STARTCHAR three
ENCODING 51
SWIDTH 726 0
DWIDTH 6 0
BBX 6 6 0 0
BITMAP
1500
4080
0140
0540
0050
5540
ENDCHAR
STARTCHAR four
ENCODING 52
SWIDTH 769 0
DWIDTH 6 0
BBX 6 6 0 0
BITMAP
0140
0540
1440
5040
5590
0040
ENDCHAR
STARTCHAR five
ENCODING 53
SWIDTH 738 0
DWIDTH 6 0
BBX 6 6 0 0
BITMAP
1540
5000
5500
1580
0010
5580
ENDCHAR
STARTCHAR six
ENCODING 54
SWIDTH 772 0
DWIDTH 6 0
BBX 6 6 0 0
BITMAP
0540
1000
5540
5050
5010
1550
ENDCHAR
STARTCHAR seven
ENCODING 55
SWIDTH 669 0
DWIDTH 5 0
BBX 5 6 0 0
BITMAP
5540
0080
0100
0100
0800
1400
ENDCHAR
STARTCHAR eight
ENCODING 56
SWIDTH 793 0
DWIDTH 6 0
BBX 6 6 0 0
BITMAP
0540
2050
2550
1550
4020
2550
ENDCHAR
STARTCHAR nine
ENCODING 57
SWIDTH 776 0
DWIDTH 6 0
BBX 6 6 0 0
BITMAP
1500
5040
4020
1560
0010
1540
ENDCHAR
STARTCHAR colon
ENCODING 58
SWIDTH 245 0
DWIDTH 2 0
BBX 2 4 0 0
BITMAP
50
00
00
50
ENDCHAR
STARTCHAR semicolon
ENCODING 59
SWIDTH 234 0
DWIDTH 2 0
BBX 2 5 0 -1
BITMAP
50
00
00
40
40
ENDCHAR
STARTCHAR less
ENCODING 60
SWIDTH 634 0
DWIDTH 5 0
BBX 5 4 0 1
BITMAP
0040
1500
6000
0500
ENDCHAR
STARTCHAR equal
ENCODING 61
SWIDTH 634 0
DWIDTH 5 0
BBX 4 3 1 1
BITMAP
55
00
54
ENDCHAR
STARTCHAR greater
ENCODING 62
SWIDTH 634 0
DWIDTH 5 0
BBX 4 4 1 1
BITMAP
40
54
09
50
ENDCHAR
STARTCHAR question
ENCODING 63
SWIDTH 568 0
DWIDTH 5 0
BBX 3 6 1 0
BITMAP
50
08
08
50
40
40
ENDCHAR
STARTCHAR at
ENCODING 64
SWIDTH 1016 0
DWIDTH 8 0
BBX 8 6 0 0
BITMAP
0150
1408
5561
5411
1554
1550
ENDCHAR
STARTCHAR A
ENCODING 65
SWIDTH 812 0
DWIDTH 7 0
BBX 6 6 0 0
BITMAP
0100
0600
0440
1040
2550
4010
ENDCHAR
STARTCHAR B
ENCODING 66
SWIDTH 836 0
DWIDTH 7 0
BBX 6 6 1 0
BITMAP
5500
4080
4040
9540
4050
9580
ENDCHAR
STARTCHAR C
ENCODING 67
SWIDTH 869 0
DWIDTH 7 0
BBX 7 6 0 0
BITMAP
0550
2414
5000
4000
5000
1554
ENDCHAR
STARTCHAR D
ENCODING 68
SWIDTH 910 0
DWIDTH 7 0
BBX 6 6 1 0
BITMAP
5500
4080
4010
4020
4010
9580
ENDCHAR
STARTCHAR E
ENCODING 69
SWIDTH 754 0
DWIDTH 6 0
BBX 5 6 1 0
BITMAP
5500
4000
4000
9500
4000
9540
ENDCHAR
STARTCHAR F
ENCODING 70
SWIDTH 687 0
DWIDTH 6 0
BBX 4 6 1 0
BITMAP
55
40
40
95
40
40
ENDCHAR
STARTCHAR G
ENCODING 71
SWIDTH 910 0
DWIDTH 7 0
BBX 7 6 0 0
BITMAP
0550
2414
5000
4054
5004
1554
ENDCHAR
STARTCHAR H
ENCODING 72
SWIDTH 949 0
DWIDTH 8 0
BBX 6 6 1 0
BITMAP
0010
4010
4010
9560
4010
4010
ENDCHAR
STARTCHAR I
ENCODING 73
SWIDTH 287 0
DWIDTH 2 0
BBX 1 5 1 0
BITMAP
40
40
40
40
40
ENDCHAR
STARTCHAR J
ENCODING 74
SWIDTH 590 0
DWIDTH 5 0
BBX 4 6 0 0
BITMAP
01
01
01
01
01
55
ENDCHAR
STARTCHAR K
ENCODING 75
SWIDTH 806 0
DWIDTH 6 0
BBX 5 6 1 0
BITMAP
0040
4500
5400
A000
4900
4140
ENDCHAR
STARTCHAR L
ENCODING 76
SWIDTH 701 0
DWIDTH 6 0
BBX 4 5 1 0
BITMAP
40
40
40
40
95
ENDCHAR
STARTCHAR M
ENCODING 77
SWIDTH 1139 0
DWIDTH 9 0
BBX 8 6 1 0
BITMAP
4000
8009
6015
5455
4885
4205
ENDCHAR
STARTCHAR N
ENCODING 78
SWIDTH 936 0
DWIDTH 7 0
BBX 6 6 1 0
BITMAP
4010
9010
5410
4510
4150
4060
ENDCHAR
STARTCHAR O
ENCODING 79
SWIDTH 983 0
DWIDTH 8 0
BBX 8 6 0 0
BITMAP
0550
2414
5005
4005
5004
1554
ENDCHAR
STARTCHAR P
ENCODING 80
SWIDTH 818 0
DWIDTH 7 0
BBX 5 6 1 0
BITMAP
5500
4180
4040
9540
4000
4000
ENDCHAR
STARTCHAR Q
ENCODING 81
SWIDTH 983 0
DWIDTH 8 0
BBX 8 6 0 0
BITMAP
0550
2414
5005
4005
5044
1569
ENDCHAR
STARTCHAR R
ENCODING 82
SWIDTH 833 0
DWIDTH 7 0
BBX 5 6 1 0
BITMAP
5500
4180
4080
9640
4140
4080
ENDCHAR
STARTCHAR S
ENCODING 83
SWIDTH 787 0
DWIDTH 6 0
BBX 6 6 0 0
BITMAP
1540
5000
2000
0540
0020
5550
ENDCHAR
STARTCHAR T
ENCODING 84
SWIDTH 708 0
DWIDTH 6 0
BBX 6 6 0 0
BITMAP
5550
0400
0400
0400
0400
0400
ENDCHAR
STARTCHAR U
ENCODING 85
SWIDTH 891 0
DWIDTH 7 0
BBX 6 5 1 0
BITMAP
4050
4050
4050
4050
5540
ENDCHAR
STARTCHAR V
ENCODING 86
SWIDTH 817 0
DWIDTH 7 0
BBX 6 6 0 0
BITMAP
4000
5020
2010
1480
0840
0600
ENDCHAR
STARTCHAR W
ENCODING 87
SWIDTH 1266 0
DWIDTH 10 0
BBX 10 6 0 0
BITMAP
401010
50A010
205040
110480
060940
090600
ENDCHAR
STARTCHAR X
ENCODING 88
SWIDTH 821 0
DWIDTH 7 0
BBX 6 6 0 0
BITMAP
0010
2050
0940
0600
1480
5020
ENDCHAR
STARTCHAR Y
ENCODING 89
SWIDTH 763 0
DWIDTH 6 0
BBX 6 6 0 0
BITMAP
4010
1040
1540
0500
0500
0500
ENDCHAR
STARTCHAR Z
ENCODING 90
SWIDTH 728 0
DWIDTH 6 0
BBX 5 6 0 0
BITMAP
1540
0080
0200
0400
1400
6540
ENDCHAR
STARTCHAR bracketleft
ENCODING 91
SWIDTH 409 0
DWIDTH 3 0
BBX 2 7 1 -1
BITMAP
90
40
40
40
40
40
50
ENDCHAR
STARTCHAR backslash
ENCODING 92
SWIDTH 500 0
DWIDTH 4 0
BBX 4 6 0 0
BITMAP
40
10
10
04
04
05
ENDCHAR
STARTCHAR bracketright
ENCODING 93
SWIDTH 409 0
DWIDTH 3 0
BBX 3 7 0 -1
BITMAP
54
14
14
14
14
14
50
ENDCHAR
STARTCHAR asciicircum
ENCODING 94
SWIDTH 459 0
DWIDTH 4 0
BBX 3 3 0 3
BITMAP
10
14
44
ENDCHAR
STARTCHAR underscore
ENCODING 95
SWIDTH 500 0
DWIDTH 4 0
BBX 4 1 0 -1
BITMAP
55
ENDCHAR
STARTCHAR grave
ENCODING 96
SWIDTH 527 0
DWIDTH 4 0
BBX 2 2 1 4
BITMAP
40
10
ENDCHAR
STARTCHAR a
ENCODING 97
SWIDTH 888 0
DWIDTH 7 0
BBX 7 6 0 0
BITMAP
1540
1020
0054
1554
4014
6564
ENDCHAR
STARTCHAR b
ENCODING 98
SWIDTH 836 0
DWIDTH 7 0
BBX 6 6 1 0
BITMAP
5500
4080
4040
9540
4050
9580
ENDCHAR
STARTCHAR c
ENCODING 99
SWIDTH 869 0
DWIDTH 7 0
BBX 7 6 0 0
BITMAP
0550
2414
5000
4000
5000
1554
ENDCHAR
STARTCHAR d
ENCODING 100
SWIDTH 910 0
DWIDTH 7 0
BBX 6 6 1 0
BITMAP
5500
4080
4010
4020
4010
9580
ENDCHAR
STARTCHAR e
ENCODING 101
SWIDTH 910 0
DWIDTH 7 0
BBX 7 6 0 0
BITMAP
0540
1410
5004
5554
5000
1550
ENDCHAR
STARTCHAR f
ENCODING 102
SWIDTH 817 0
DWIDTH 7 0
BBX 5 6 1 0
BITMAP
1540
9000
4000
9540
4000
4000
ENDCHAR
STARTCHAR g
ENCODING 103
SWIDTH 910 0
DWIDTH 7 0
BBX 7 6 0 0
BITMAP
0550
2414
5000
4054
5004
1554
ENDCHAR
STARTCHAR h
ENCODING 104
SWIDTH 949 0
DWIDTH 8 0
BBX 6 6 1 0
BITMAP
0010
4010
4010
9560
4010
4010
ENDCHAR
STARTCHAR i
ENCODING 105
SWIDTH 287 0
DWIDTH 2 0
BBX 1 5 1 0
BITMAP
40
40
40
40
40
ENDCHAR
STARTCHAR j
ENCODING 106
SWIDTH 590 0
DWIDTH 5 0
BBX 4 6 0 0
BITMAP
01
01
01
01
01
55
ENDCHAR
STARTCHAR k
ENCODING 107
SWIDTH 867 0
DWIDTH 7 0
BBX 6 5 1 0
BITMAP
4080
4100
9900
4080
4050
ENDCHAR
STARTCHAR l
ENCODING 108
SWIDTH 709 0
DWIDTH 6 0
BBX 5 5 1 0
BITMAP
4000
4000
4000
4000
5540
ENDCHAR
STARTCHAR m
ENCODING 109
SWIDTH 1246 0
DWIDTH 10 0
BBX 8 6 1 0
BITMAP
1414
9242
4141
4141
4141
4141
ENDCHAR
STARTCHAR n
ENCODING 110
SWIDTH 933 0
DWIDTH 7 0
BBX 6 6 1 0
BITMAP
0540
9050
4020
4020
4020
4020
ENDCHAR
STARTCHAR o
ENCODING 111
SWIDTH 983 0
DWIDTH 8 0
BBX 8 6 0 0
BITMAP
0550
2414
5005
4005
5004
1554
ENDCHAR
STARTCHAR p
ENCODING 112
SWIDTH 818 0
DWIDTH 7 0
BBX 5 6 1 0
BITMAP
5500
4180
4040
9540
4000
4000
ENDCHAR
STARTCHAR q
ENCODING 113
SWIDTH 983 0
DWIDTH 8 0
BBX 8 6 0 0
BITMAP
0550
2414
5005
4005
5004
1559
ENDCHAR
STARTCHAR r
ENCODING 114
SWIDTH 609 0
DWIDTH 5 0
BBX 4 6 1 0
BITMAP
05
90
40
40
40
40
ENDCHAR
STARTCHAR s
ENCODING 115
SWIDTH 787 0
DWIDTH 6 0
BBX 6 6 0 0
BITMAP
1540
5000
2000
0540
0020
5550
ENDCHAR
STARTCHAR t
ENCODING 116
SWIDTH 708 0
DWIDTH 6 0
BBX 6 6 0 0
BITMAP
5550
0400
0400
0400
0400
0400
ENDCHAR
STARTCHAR u
ENCODING 117
SWIDTH 931 0
DWIDTH 7 0
BBX 6 6 1 0
BITMAP
0010
4020
4020
4020
4020
5560
ENDCHAR
STARTCHAR v
ENCODING 118
SWIDTH 817 0
DWIDTH 7 0
BBX 6 6 0 0
BITMAP
4000
5020
2010
1480
0840
0600
ENDCHAR
STARTCHAR w
ENCODING 119
SWIDTH 1266 0
DWIDTH 10 0
BBX 10 6 0 0
BITMAP
401010
50A010
205040
110480
060940
090600
ENDCHAR
STARTCHAR x
ENCODING 120
SWIDTH 821 0
DWIDTH 7 0
BBX 6 6 0 0
BITMAP
0010
2050
0940
0600
1480
5020
ENDCHAR
STARTCHAR y
ENCODING 121
SWIDTH 911 0
DWIDTH 7 0
BBX 7 5 0 0
BITMAP
5004
5014
2454
0514
1550
ENDCHAR
STARTCHAR z
ENCODING 122
SWIDTH 728 0
DWIDTH 6 0
BBX 5 6 0 0
BITMAP
1540
0080
0200
0400
1400
6540
ENDCHAR
STARTCHAR braceleft
ENCODING 123
SWIDTH 386 0
DWIDTH 3 0
BBX 3 7 0 -1
BITMAP
14
10
10
50
10
10
14
ENDCHAR
STARTCHAR bar
ENCODING 124
SWIDTH 259 0
DWIDTH 2 0
BBX 2 8 0 -2
BITMAP
50
50
50
50
50
50
50
50
ENDCHAR
STARTCHAR braceright
ENCODING 125
SWIDTH 386 0
DWIDTH 3 0
BBX 3 7 0 -1
BITMAP
50
10
10
14
10
10
50
ENDCHAR
STARTCHAR asciitilde
ENCODING 126
SWIDTH 634 0
DWIDTH 5 0
BBX 5 1 0 2
BITMAP
5540
ENDCHAR
STARTCHAR nonbreakingspace
ENCODING 160
SWIDTH 375 0
DWIDTH 3 0
BBX 1 1 0 0
BITMAP
00
ENDCHAR
STARTCHAR exclamdown
ENCODING 161
SWIDTH 274 0
DWIDTH 2 0
BBX 2 4 0 0
BITMAP
10
10
50
50
ENDCHAR
STARTCHAR cent
ENCODING 162
SWIDTH 736 0
DWIDTH 6 0
BBX 6 7 0 -1
BITMAP
0100
1650
4100
8100
5100
1640
0100
ENDCHAR
STARTCHAR sterling
ENCODING 163
SWIDTH 792 0
DWIDTH 6 0
BBX 6 6 0 0
BITMAP
0140
0400
1000
6540
1000
6550
ENDCHAR
STARTCHAR currency
ENCODING 164
SWIDTH 560 0
DWIDTH 4 0
BBX 4 4 0 1
BITMAP
01
26
11
66
ENDCHAR
STARTCHAR yen
ENCODING 165
SWIDTH 811 0
DWIDTH 6 0
BBX 5 6 1 0
BITMAP
0040
8140
6100
5940
5940
0400
ENDCHAR
STARTCHAR brokenbar
ENCODING 166
SWIDTH 259 0
DWIDTH 2 0
BBX 2 6 0 -1
BITMAP
50
50
00
00
50
50
ENDCHAR
STARTCHAR section
ENCODING 167
SWIDTH 500 0
DWIDTH 4 0
BBX 4 6 0 0
BITMAP
14
50
64
51
18
18
ENDCHAR
STARTCHAR dieresis
ENCODING 168
SWIDTH 527 0
DWIDTH 4 0
BBX 2 1 1 4
BITMAP
50
ENDCHAR
STARTCHAR copyright
ENCODING 169
SWIDTH 770 0
DWIDTH 6 0
BBX 6 6 0 0
BITMAP
0500
1540
5410
5010
5550
1540
ENDCHAR
STARTCHAR ordfeminine
ENCODING 170
SWIDTH 497 0
DWIDTH 4 0
BBX 4 4 0 2
BITMAP
14
15
81
65
ENDCHAR
STARTCHAR guillemotleft
ENCODING 171
SWIDTH 440 0
DWIDTH 4 0
BBX 3 3 0 1
BITMAP
58
54
14
ENDCHAR
STARTCHAR logicalnot
ENCODING 172
SWIDTH 634 0
DWIDTH 5 0
BBX 4 2 1 2
BITMAP
55
01
ENDCHAR
STARTCHAR uni00AD
ENCODING 173
SWIDTH 540 0
DWIDTH 4 0
BBX 4 1 0 2
BITMAP
55
ENDCHAR
STARTCHAR registered
ENCODING 174
SWIDTH 600 0
DWIDTH 5 0
BBX 5 5 0 1
BITMAP
1400
5500
5440
5100
1400
ENDCHAR
STARTCHAR macron
ENCODING 175
SWIDTH 527 0
DWIDTH 4 0
BBX 2 1 1 4
BITMAP
50
ENDCHAR
STARTCHAR degree
ENCODING 176
SWIDTH 373 0
DWIDTH 3 0
BBX 3 3 0 3
BITMAP
10
44
10
ENDCHAR
STARTCHAR plusminus
ENCODING 177
SWIDTH 634 0
DWIDTH 5 0
BBX 4 5 1 0
BITMAP
10
64
64
10
55
ENDCHAR
STARTCHAR twosuperior
ENCODING 178
SWIDTH 511 0
DWIDTH 4 0
BBX 4 4 0 2
BITMAP
54
01
04
65
ENDCHAR
STARTCHAR threesuperior
ENCODING 179
SWIDTH 512 0
DWIDTH 4 0
BBX 4 4 0 2
BITMAP
54
05
15
55
ENDCHAR
STARTCHAR acute
ENCODING 180
SWIDTH 527 0
DWIDTH 4 0
BBX 2 2 2 4
BITMAP
50
40
ENDCHAR
STARTCHAR micro
ENCODING 181
SWIDTH 705 0
DWIDTH 6 0
BBX 5 6 0 -2
BITMAP
1040
1040
1040
6540
4000
4000
ENDCHAR
STARTCHAR paragraph
ENCODING 182
SWIDTH 585 0
DWIDTH 5 0
BBX 4 6 0 0
BITMAP
15
79
79
29
05
05
ENDCHAR
STARTCHAR periodcentered
ENCODING 183
SWIDTH 185 0
DWIDTH 1 0
BBX 1 1 0 2
BITMAP
40
ENDCHAR
STARTCHAR cedilla
ENCODING 184
SWIDTH 527 0
DWIDTH 4 0
BBX 2 2 1 -2
BITMAP
10
50
ENDCHAR
STARTCHAR onesuperior
ENCODING 185
SWIDTH 261 0
DWIDTH 2 0
BBX 2 4 0 2
BITMAP
40
50
10
10
ENDCHAR
STARTCHAR ordmasculine
ENCODING 186
SWIDTH 520 0
DWIDTH 4 0
BBX 4 4 0 2
BITMAP
14
41
41
15
ENDCHAR
STARTCHAR guillemotright
ENCODING 187
SWIDTH 440 0
DWIDTH 4 0
BBX 3 3 0 1
BITMAP
58
24
44
ENDCHAR
STARTCHAR onequarter
ENCODING 188
SWIDTH 857 0
DWIDTH 7 0
BBX 6 6 0 0
BITMAP
4000
1040
1100
1550
1550
1160
ENDCHAR
STARTCHAR onehalf
ENCODING 189
SWIDTH 937 0
DWIDTH 8 0
BBX 7 6 0 0
BITMAP
4000
1040
1100
1554
1404
1064
ENDCHAR
STARTCHAR threequarters
ENCODING 190
SWIDTH 978 0
DWIDTH 8 0
BBX 7 6 0 0
BITMAP
5400
0810
0440
5514
0554
0458
ENDCHAR
STARTCHAR questiondown
ENCODING 191
SWIDTH 568 0
DWIDTH 5 0
BBX 4 4 0 0
BITMAP
05
14
40
25
ENDCHAR
STARTCHAR Agrave
ENCODING 192
SWIDTH 812 0
DWIDTH 7 0
BBX 6 7 0 0
BITMAP
0500
0100
0600
0440
1040
2550
4010
ENDCHAR
STARTCHAR Aacute
ENCODING 193
SWIDTH 812 0
DWIDTH 7 0
BBX 6 7 0 0
BITMAP
0140
0100
0600
0440
1040
2550
4010
ENDCHAR
STARTCHAR Acircumflex
ENCODING 194
SWIDTH 812 0
DWIDTH 7 0
BBX 6 7 0 0
BITMAP
0540
0100
0600
0440
1040
2550
4010
ENDCHAR
STARTCHAR Atilde
ENCODING 195
SWIDTH 812 0
DWIDTH 7 0
BBX 6 7 0 0
BITMAP
0540
0100
0600
0440
1040
2550
4010
ENDCHAR
STARTCHAR Adieresis
ENCODING 196
SWIDTH 812 0
DWIDTH 7 0
BBX 6 7 0 0
BITMAP
0440
0100
0600
0440
1040
2550
4010
ENDCHAR
STARTCHAR Aring
ENCODING 197
SWIDTH 812 0
DWIDTH 7 0
BBX 6 8 0 0
BITMAP
0100
0940
0100
0600
0440
1040
2550
4010
ENDCHAR
STARTCHAR AE
ENCODING 198
SWIDTH 1172 0
DWIDTH 9 0
BBX 9 6 0 0
BITMAP
015540
028000
088000
149540
258000
809540
ENDCHAR
STARTCHAR Ccedilla
ENCODING 199
SWIDTH 869 0
DWIDTH 7 0
BBX 7 8 0 -2
BITMAP
0550
2414
5000
4000
5000
1554
0140
0140
ENDCHAR
STARTCHAR Egrave
ENCODING 200
SWIDTH 754 0
DWIDTH 6 0
BBX 5 7 1 0
BITMAP
1400
5500
4000
4000
9500
4000
9540
ENDCHAR
STARTCHAR Eacute
ENCODING 201
SWIDTH 754 0
DWIDTH 6 0
BBX 5 7 1 0
BITMAP
0500
5500
4000
4000
9500
4000
9540
ENDCHAR
STARTCHAR Ecircumflex
ENCODING 202
SWIDTH 754 0
DWIDTH 6 0
BBX 5 7 1 0
BITMAP
1500
5500
4000
4000
9500
4000
9540
ENDCHAR
STARTCHAR Edieresis
ENCODING 203
SWIDTH 754 0
DWIDTH 6 0
BBX 5 7 1 0
BITMAP
1400
5500
4000
4000
9500
4000
9540
ENDCHAR
STARTCHAR Igrave
ENCODING 204
SWIDTH 287 0
DWIDTH 2 0
BBX 2 7 0 0
BITMAP
50
10
10
10
10
10
10
ENDCHAR
STARTCHAR Iacute
ENCODING 205
SWIDTH 287 0
DWIDTH 2 0
BBX 2 7 1 0
BITMAP
50
00
40
40
40
40
40
ENDCHAR
STARTCHAR Icircumflex
ENCODING 206
SWIDTH 287 0
DWIDTH 2 0
BBX 3 7 0 0
BITMAP
54
00
10
10
10
10
10
ENDCHAR
STARTCHAR Idieresis
ENCODING 207
SWIDTH 287 0
DWIDTH 2 0
BBX 2 7 0 0
BITMAP
50
00
10
10
10
10
10
ENDCHAR
STARTCHAR Eth
ENCODING 208
SWIDTH 910 0
DWIDTH 7 0
BBX 7 6 0 0
BITMAP
1540
1064
1008
6508
1004
2550
ENDCHAR
STARTCHAR Ntilde
ENCODING 209
SWIDTH 936 0
DWIDTH 7 0
BBX 6 7 1 0
BITMAP
1500
4010
9010
5410
4510
4150
4060
ENDCHAR
STARTCHAR Ograve
ENCODING 210
SWIDTH 983 0
DWIDTH 8 0
BBX 8 7 0 0
BITMAP
0100
0550
2414
5005
4005
5004
1554
ENDCHAR
STARTCHAR Oacute
ENCODING 211
SWIDTH 983 0
DWIDTH 8 0
BBX 8 7 0 0
BITMAP
0040
0550
2414
5005
4005
5004
1554
ENDCHAR
STARTCHAR Ocircumflex
ENCODING 212
SWIDTH 983 0
DWIDTH 8 0
BBX 8 7 0 0
BITMAP
0140
0550
2414
5005
4005
5004
1554
ENDCHAR
STARTCHAR Otilde
ENCODING 213
SWIDTH 983 0
DWIDTH 8 0
BBX 8 7 0 0
BITMAP
0540
0550
2414
5005
4005
5004
1554
ENDCHAR
STARTCHAR Odieresis
ENCODING 214
SWIDTH 983 0
DWIDTH 8 0
BBX 8 7 0 0
BITMAP
0140
0550
2414
5005
4005
5004
1554
ENDCHAR
STARTCHAR multiply
ENCODING 215
SWIDTH 634 0
DWIDTH 5 0
BBX 3 3 1 1
BITMAP
54
20
44
ENDCHAR
STARTCHAR Oslash
ENCODING 216
SWIDTH 983 0
DWIDTH 8 0
BBX 8 7 0 -1
BITMAP
0554
2424
5045
4105
5504
1954
1000
ENDCHAR
STARTCHAR Ugrave
ENCODING 217
SWIDTH 891 0
DWIDTH 7 0
BBX 6 7 1 0
BITMAP
1400
0000
4050
4050
4050
4050
5540
ENDCHAR
STARTCHAR Uacute
ENCODING 218
SWIDTH 891 0
DWIDTH 7 0
BBX 6 7 1 0
BITMAP
0500
0000
4050
4050
4050
4050
5540
ENDCHAR
STARTCHAR Ucircumflex
ENCODING 219
SWIDTH 891 0
DWIDTH 7 0
BBX 6 7 1 0
BITMAP
1500
0000
4050
4050
4050
4050
5540
ENDCHAR
STARTCHAR Udieresis
ENCODING 220
SWIDTH 891 0
DWIDTH 7 0
BBX 6 7 1 0
BITMAP
1100
0000
4050
4050
4050
4050
5540
ENDCHAR
STARTCHAR Yacute
ENCODING 221
SWIDTH 763 0
DWIDTH 6 0
BBX 6 7 0 0
BITMAP
0140
4010
1040
1540
0500
0500
0500
ENDCHAR
STARTCHAR Thorn
ENCODING 222
SWIDTH 787 0
DWIDTH 6 0
BBX 5 5 1 0
BITMAP
9500
4080
4080
9540
4000
ENDCHAR
STARTCHAR germandbls
ENCODING 223
SWIDTH 863 0
DWIDTH 7 0
BBX 7 6 0 0
BITMAP
0540
2020
5150
5160
5004
5560
ENDCHAR
STARTCHAR agrave
ENCODING 224
SWIDTH 888 0
DWIDTH 7 0
BBX 7 7 0 0
BITMAP
0500
1540
1020
0054
1554
4014
6564
ENDCHAR
STARTCHAR aacute
ENCODING 225
SWIDTH 888 0
DWIDTH 7 0
BBX 7 7 0 0
BITMAP
0140
1540
1020
0054
1554
4014
6564
ENDCHAR
STARTCHAR acircumflex
ENCODING 226
SWIDTH 888 0
DWIDTH 7 0
BBX 7 7 0 0
BITMAP
0540
1540
1020
0054
1554
4014
6564
ENDCHAR
STARTCHAR atilde
ENCODING 227
SWIDTH 888 0
DWIDTH 7 0
BBX 7 7 0 0
BITMAP
0540
1540
1020
0054
1554
4014
6564
ENDCHAR
STARTCHAR adieresis
ENCODING 228
SWIDTH 888 0
DWIDTH 7 0
BBX 7 7 0 0
BITMAP
0440
1540
1020
0054
1554
4014
6564
ENDCHAR
STARTCHAR aring
ENCODING 229
SWIDTH 888 0
DWIDTH 7 0
BBX 7 8 0 0
BITMAP
0100
0540
1640
1020
0054
1554
4014
6564
ENDCHAR
STARTCHAR ae
ENCODING 230
SWIDTH 1551 0
DWIDTH 12 0
BBX 12 6 0 0
BITMAP
154050
102505
005401
155955
400800
655555
ENDCHAR
STARTCHAR ccedilla
ENCODING 231
SWIDTH 869 0
DWIDTH 7 0
BBX 7 8 0 -2
BITMAP
0550
2414
5000
4000
5000
1554
0140
0140
ENDCHAR
STARTCHAR egrave
ENCODING 232
SWIDTH 910 0
DWIDTH 7 0
BBX 7 7 0 0
BITMAP
0500
0540
1410
5004
5554
5000
1550
ENDCHAR
STARTCHAR eacute
ENCODING 233
SWIDTH 910 0
DWIDTH 7 0
BBX 7 7 0 0
BITMAP
0140
0540
1410
5004
5554
5000
1550
ENDCHAR
STARTCHAR ecircumflex
ENCODING 234
SWIDTH 910 0
DWIDTH 7 0
BBX 7 7 0 0
BITMAP
0540
0540
1410
5004
5554
5000
1550
ENDCHAR
STARTCHAR edieresis
ENCODING 235
SWIDTH 910 0
DWIDTH 7 0
BBX 7 7 0 0
BITMAP
0440
0540
1410
5004
5554
5000
1550
ENDCHAR
STARTCHAR igrave
ENCODING 236
SWIDTH 287 0
DWIDTH 2 0
BBX 2 7 0 0
BITMAP
50
10
10
10
10
10
10
ENDCHAR
STARTCHAR iacute
ENCODING 237
SWIDTH 287 0
DWIDTH 2 0
BBX 2 7 1 0
BITMAP
50
00
40
40
40
40
40
ENDCHAR
STARTCHAR icircumflex
ENCODING 238
SWIDTH 287 0
DWIDTH 2 0
BBX 3 7 0 0
BITMAP
54
00
10
10
10
10
10
ENDCHAR
STARTCHAR idieresis
ENCODING 239
SWIDTH 287 0
DWIDTH 2 0
BBX 2 7 0 0
BITMAP
50
00
10
10
10
10
10
ENDCHAR
STARTCHAR eth
ENCODING 240
SWIDTH 910 0
DWIDTH 7 0
BBX 7 6 0 0
BITMAP
1540
1064
1008
6508
1004
2550
ENDCHAR
STARTCHAR ntilde
ENCODING 241
SWIDTH 933 0
DWIDTH 7 0
BBX 6 7 1 0
BITMAP
1500
0540
9050
4020
4020
4020
4020
ENDCHAR
STARTCHAR ograve
ENCODING 242
SWIDTH 983 0
DWIDTH 8 0
BBX 8 7 0 0
BITMAP
0100
0550
2414
5005
4005
5004
1554
ENDCHAR
STARTCHAR oacute
ENCODING 243
SWIDTH 983 0
DWIDTH 8 0
BBX 8 7 0 0
BITMAP
0040
0550
2414
5005
4005
5004
1554
ENDCHAR
STARTCHAR ocircumflex
ENCODING 244
SWIDTH 983 0
DWIDTH 8 0
BBX 8 7 0 0
BITMAP
0140
0550
2414
5005
4005
5004
1554
ENDCHAR
STARTCHAR otilde
ENCODING 245
SWIDTH 983 0
DWIDTH 8 0
BBX 8 7 0 0
BITMAP
0540
0550
2414
5005
4005
5004
1554
ENDCHAR
STARTCHAR odieresis
ENCODING 246
SWIDTH 983 0
DWIDTH 8 0
BBX 8 7 0 0
BITMAP
0140
0550
2414
5005
4005
5004
1554
ENDCHAR
STARTCHAR divide
ENCODING 247
SWIDTH 634 0
DWIDTH 5 0
BBX 4 3 1 1
BITMAP
10
55
10
ENDCHAR
STARTCHAR oslash
ENCODING 248
SWIDTH 983 0
DWIDTH 8 0
BBX 8 7 0 -1
BITMAP
0554
2424
5045
4105
5504
1954
1000
ENDCHAR
STARTCHAR ugrave
ENCODING 249
SWIDTH 931 0
DWIDTH 7 0
BBX 6 7 1 0
BITMAP
1400
0010
4020
4020
4020
4020
5560
ENDCHAR
STARTCHAR uacute
ENCODING 250
SWIDTH 931 0
DWIDTH 7 0
BBX 6 7 1 0
BITMAP
0500
0010
4020
4020
4020
4020
5560
ENDCHAR
STARTCHAR ucircumflex
ENCODING 251
SWIDTH 931 0
DWIDTH 7 0
BBX 6 7 1 0
BITMAP
1500
0010
4020
4020
4020
4020
5560
ENDCHAR
STARTCHAR udieresis
ENCODING 252
SWIDTH 931 0
DWIDTH 7 0
BBX 6 7 1 0
BITMAP
1100
0010
4020
4020
4020
4020
5560
ENDCHAR
STARTCHAR yacute
ENCODING 253
SWIDTH 911 0
DWIDTH 7 0
BBX 7 7 0 0
BITMAP
0140
0000
5004
5014
2454
0514
1550
ENDCHAR
STARTCHAR thorn
ENCODING 254
SWIDTH 787 0
DWIDTH 6 0
BBX 5 5 1 0
BITMAP
9500
4080
4080
9540
4000
ENDCHAR
STARTCHAR ydieresis
ENCODING 255
SWIDTH 911 0
DWIDTH 7 0
BBX 7 7 0 0
BITMAP
0440
0000
5004
5014
2454
0514
1550
ENDCHAR
STARTCHAR Amacron
ENCODING 256
SWIDTH 812 0
DWIDTH 7 0
BBX 6 7 0 0
BITMAP
0500
0100
0600
0440
1040
2550
4010
ENDCHAR
STARTCHAR amacron
ENCODING 257
SWIDTH 888 0
DWIDTH 7 0
BBX 7 7 0 0
BITMAP
0540
1540
1020
0054
1554
4014
6564
ENDCHAR
STARTCHAR Abreve
ENCODING 258
SWIDTH 812 0
DWIDTH 7 0
BBX 6 7 0 0
BITMAP
0540
0100
0600
0440
1040
2550
4010
ENDCHAR
STARTCHAR abreve
ENCODING 259
SWIDTH 888 0
DWIDTH 7 0
BBX 7 7 0 0
BITMAP
0540
1540
1020
0054
1554
4014
6564
ENDCHAR
STARTCHAR Aogonek
ENCODING 260
SWIDTH 812 0
DWIDTH 7 0
BBX 7 8 0 -2
BITMAP
0100
0600
0440
1040
2550
4010
0010
0014
ENDCHAR
STARTCHAR aogonek
ENCODING 261
SWIDTH 888 0
DWIDTH 7 0
BBX 7 8 0 -2
BITMAP
1540
1020
0054
1554
4014
6564
0010
0014
ENDCHAR
STARTCHAR Cacute
ENCODING 262
SWIDTH 869 0
DWIDTH 7 0
BBX 7 7 0 0
BITMAP
0140
0550
2414
5000
4000
5000
1554
ENDCHAR
STARTCHAR cacute
ENCODING 263
SWIDTH 869 0
DWIDTH 7 0
BBX 7 7 0 0
BITMAP
0140
0550
2414
5000
4000
5000
1554
ENDCHAR
STARTCHAR Ccircumflex
ENCODING 264
SWIDTH 869 0
DWIDTH 7 0
BBX 7 7 0 0
BITMAP
0540
0550
2414
5000
4000
5000
1554
ENDCHAR
STARTCHAR ccircumflex
ENCODING 265
SWIDTH 869 0
DWIDTH 7 0
BBX 7 7 0 0
BITMAP
0540
0550
2414
5000
4000
5000
1554
ENDCHAR
STARTCHAR Cdotaccent
ENCODING 266
SWIDTH 869 0
DWIDTH 7 0
BBX 7 7 0 0
BITMAP
0100
0550
2414
5000
4000
5000
1554
ENDCHAR
STARTCHAR cdotaccent
ENCODING 267
SWIDTH 869 0
DWIDTH 7 0
BBX 7 7 0 0
BITMAP
0100
0550
2414
5000
4000
5000
1554
ENDCHAR
STARTCHAR Ccaron
ENCODING 268
SWIDTH 869 0
DWIDTH 7 0
BBX 7 7 0 0
BITMAP
0540
0550
2414
5000
4000
5000
1554
ENDCHAR
STARTCHAR ccaron
ENCODING 269
SWIDTH 869 0
DWIDTH 7 0
BBX 7 7 0 0
BITMAP
0540
0550
2414
5000
4000
5000
1554
ENDCHAR
STARTCHAR Dcaron
ENCODING 270
SWIDTH 910 0
DWIDTH 7 0
BBX 6 7 1 0
BITMAP
1500
5500
4080
4010
4020
4010
9580
ENDCHAR
STARTCHAR dcaron
ENCODING 271
SWIDTH 910 0
DWIDTH 7 0
BBX 6 7 1 0
BITMAP
1500
5500
4080
4010
4020
4010
9580
ENDCHAR
STARTCHAR Dcroat
ENCODING 272
SWIDTH 910 0
DWIDTH 7 0
BBX 7 6 0 0
BITMAP
1540
1064
1008
6508
1004
2550
ENDCHAR
STARTCHAR dcroat
ENCODING 273
SWIDTH 910 0
DWIDTH 7 0
BBX 7 6 0 0
BITMAP
1540
1064
1008
6508
1004
2550
ENDCHAR
STARTCHAR Emacron
ENCODING 274
SWIDTH 754 0
DWIDTH 6 0
BBX 5 7 1 0
BITMAP
1400
5500
4000
4000
9500
4000
9540
ENDCHAR
STARTCHAR emacron
ENCODING 275
SWIDTH 910 0
DWIDTH 7 0
BBX 7 7 0 0
BITMAP
0540
0540
1410
5004
5554
5000
1550
ENDCHAR
STARTCHAR Ebreve
ENCODING 276
SWIDTH 754 0
DWIDTH 6 0
BBX 5 7 1 0
BITMAP
1500
5500
4000
4000
9500
4000
9540
ENDCHAR
STARTCHAR ebreve
ENCODING 277
SWIDTH 910 0
DWIDTH 7 0
BBX 7 7 0 0
BITMAP
0540
0540
1410
5004
5554
5000
1550
ENDCHAR
STARTCHAR Edotaccent
ENCODING 278
SWIDTH 754 0
DWIDTH 6 0
BBX 5 7 1 0
BITMAP
0400
5500
4000
4000
9500
4000
9540
ENDCHAR
STARTCHAR edotaccent
ENCODING 279
SWIDTH 910 0
DWIDTH 7 0
BBX 7 7 0 0
BITMAP
0100
0540
1410
5004
5554
5000
1550
ENDCHAR
STARTCHAR Eogonek
ENCODING 280
SWIDTH 754 0
DWIDTH 6 0
BBX 5 8 1 -2
BITMAP
5500
4000
4000
9500
4000
9540
0100
0100
ENDCHAR
STARTCHAR eogonek
ENCODING 281
SWIDTH 910 0
DWIDTH 7 0
BBX 7 8 0 -2
BITMAP
0540
1410
5004
5554
5000
1564
0020
0010
ENDCHAR
STARTCHAR Ecaron
ENCODING 282
SWIDTH 754 0
DWIDTH 6 0
BBX 5 7 1 0
BITMAP
1500
5500
4000
4000
9500
4000
9540
ENDCHAR
STARTCHAR ecaron
ENCODING 283
SWIDTH 910 0
DWIDTH 7 0
BBX 7 7 0 0
BITMAP
0540
0540
1410
5004
5554
5000
1550
ENDCHAR
STARTCHAR Gcircumflex
ENCODING 284
SWIDTH 910 0
DWIDTH 7 0
BBX 7 7 0 0
BITMAP
0140
0550
2414
5000
4054
5004
1554
ENDCHAR
STARTCHAR gcircumflex
ENCODING 285
SWIDTH 910 0
DWIDTH 7 0
BBX 7 7 0 0
BITMAP
0140
0550
2414
5000
4054
5004
1554
ENDCHAR
STARTCHAR Gbreve
ENCODING 286
SWIDTH 910 0
DWIDTH 7 0
BBX 7 7 0 0
BITMAP
0140
0550
2414
5000
4054
5004
1554
ENDCHAR
STARTCHAR gbreve
ENCODING 287
SWIDTH 910 0
DWIDTH 7 0
BBX 7 7 0 0
BITMAP
0140
0550
2414
5000
4054
5004
1554
ENDCHAR
STARTCHAR Gdotaccent
ENCODING 288
SWIDTH 910 0
DWIDTH 7 0
BBX 7 7 0 0
BITMAP
0100
0550
2414
5000
4054
5004
1554
ENDCHAR
STARTCHAR gdotaccent
ENCODING 289
SWIDTH 910 0
DWIDTH 7 0
BBX 7 7 0 0
BITMAP
0100
0550
2414
5000
4054
5004
1554
ENDCHAR
STARTCHAR Gcommaaccent
ENCODING 290
SWIDTH 910 0
DWIDTH 7 0
BBX 7 8 0 -2
BITMAP
0550
2414
5000
4054
5004
1554
0040
0100
ENDCHAR
STARTCHAR gcommaaccent
ENCODING 291
SWIDTH 910 0
DWIDTH 7 0
BBX 7 8 0 -2
BITMAP
0550
2414
5000
4054
5004
1554
0040
0100
ENDCHAR
STARTCHAR Hcircumflex
ENCODING 292
SWIDTH 949 0
DWIDTH 8 0
BBX 6 7 1 0
BITMAP
1500
0010
4010
4010
9560
4010
4010
ENDCHAR
STARTCHAR hcircumflex
ENCODING 293
SWIDTH 949 0
DWIDTH 8 0
BBX 6 7 1 0
BITMAP
1500
0010
4010
4010
9560
4010
4010
ENDCHAR
STARTCHAR Hbar
ENCODING 294
SWIDTH 949 0
DWIDTH 8 0
BBX 7 6 0 0
BITMAP
0004
6558
6558
2558
1004
1004
ENDCHAR
STARTCHAR hbar
ENCODING 295
SWIDTH 949 0
DWIDTH 8 0
BBX 7 6 0 0
BITMAP
0004
6558
6558
2558
1004
1004
ENDCHAR
STARTCHAR Itilde
ENCODING 296
SWIDTH 287 0
DWIDTH 2 0
BBX 3 7 0 0
BITMAP
54
10
10
10
10
10
10
ENDCHAR
STARTCHAR itilde
ENCODING 297
SWIDTH 287 0
DWIDTH 2 0
BBX 3 7 0 0
BITMAP
54
10
10
10
10
10
10
ENDCHAR
STARTCHAR Imacron
ENCODING 298
SWIDTH 287 0
DWIDTH 2 0
BBX 2 7 0 0
BITMAP
50
00
10
10
10
10
10
ENDCHAR
STARTCHAR imacron
ENCODING 299
SWIDTH 287 0
DWIDTH 2 0
BBX 2 7 0 0
BITMAP
50
00
10
10
10
10
10
ENDCHAR
STARTCHAR Ibreve
ENCODING 300
SWIDTH 287 0
DWIDTH 2 0
BBX 3 7 0 0
BITMAP
54
10
10
10
10
10
10
ENDCHAR
STARTCHAR ibreve
ENCODING 301
SWIDTH 287 0
DWIDTH 2 0
BBX 3 7 0 0
BITMAP
54
10
10
10
10
10
10
ENDCHAR
STARTCHAR Iogonek
ENCODING 302
SWIDTH 287 0
DWIDTH 2 0
BBX 2 7 0 -2
BITMAP
10
10
10
10
10
40
50
ENDCHAR
STARTCHAR iogonek
ENCODING 303
SWIDTH 287 0
DWIDTH 2 0
BBX 2 7 0 -2
BITMAP
10
10
10
10
10
40
50
ENDCHAR
STARTCHAR Idotaccent
ENCODING 304
SWIDTH 287 0
DWIDTH 2 0
BBX 1 7 1 0
BITMAP
40
00
40
40
40
40
40
ENDCHAR
STARTCHAR dotlessi
ENCODING 305
SWIDTH 287 0
DWIDTH 2 0
BBX 1 5 1 0
BITMAP
40
40
40
40
40
ENDCHAR
STARTCHAR IJ
ENCODING 306
SWIDTH 877 0
DWIDTH 7 0
BBX 5 5 1 0
BITMAP
4040
4040
4040
4040
5540
ENDCHAR
STARTCHAR ij
ENCODING 307
SWIDTH 877 0
DWIDTH 7 0
BBX 5 5 1 0
BITMAP
4040
4040
4040
4040
5540
ENDCHAR
STARTCHAR Jcircumflex
ENCODING 308
SWIDTH 590 0
DWIDTH 5 0
BBX 5 7 0 0
BITMAP
0540
0100
0100
0100
0100
0100
5500
ENDCHAR
STARTCHAR jcircumflex
ENCODING 309
SWIDTH 590 0
DWIDTH 5 0
BBX 5 7 0 0
BITMAP
0540
0100
0100
0100
0100
0100
5500
ENDCHAR
STARTCHAR Kcommaaccent
ENCODING 310
SWIDTH 806 0
DWIDTH 6 0
BBX 5 8 1 -2
BITMAP
0040
4500
5400
A000
4900
4140
0400
0400
ENDCHAR
STARTCHAR kcommaaccent
ENCODING 311
SWIDTH 867 0
DWIDTH 7 0
BBX 6 7 1 -2
BITMAP
4080
4100
9900
4080
4050
0400
0400
ENDCHAR
STARTCHAR kgreenlandic
ENCODING 312
SWIDTH 867 0
DWIDTH 7 0
BBX 6 5 1 0
BITMAP
4080
4100
9900
4080
4050
ENDCHAR
STARTCHAR Lacute
ENCODING 313
SWIDTH 701 0
DWIDTH 6 0
BBX 4 7 1 0
BITMAP
50
00
40
40
40
40
95
ENDCHAR
STARTCHAR lacute
ENCODING 314
SWIDTH 709 0
DWIDTH 6 0
BBX 5 7 1 0
BITMAP
5000
0000
4000
4000
4000
4000
5540
ENDCHAR
STARTCHAR Lcommaaccent
ENCODING 315
SWIDTH 701 0
DWIDTH 6 0
BBX 4 7 1 -2
BITMAP
40
40
40
40
95
04
04
ENDCHAR
STARTCHAR lcommaaccent
ENCODING 316
SWIDTH 709 0
DWIDTH 6 0
BBX 5 7 1 -2
BITMAP
4000
4000
4000
4000
5540
0400
0400
ENDCHAR
STARTCHAR Lcaron
ENCODING 317
SWIDTH 701 0
DWIDTH 6 0
BBX 4 5 1 0
BITMAP
44
40
40
40
95
ENDCHAR
STARTCHAR lcaron
ENCODING 318
SWIDTH 709 0
DWIDTH 6 0
BBX 5 5 1 0
BITMAP
4400
4000
4000
4000
5540
ENDCHAR
STARTCHAR Ldot
ENCODING 319
SWIDTH 701 0
DWIDTH 6 0
BBX 4 5 1 0
BITMAP
40
40
45
40
95
ENDCHAR
STARTCHAR ldotaccent
ENCODING 320
SWIDTH 709 0
DWIDTH 6 0
BBX 5 5 1 0
BITMAP
4000
4000
4500
4000
5540
ENDCHAR
STARTCHAR Lslash
ENCODING 321
SWIDTH 701 0
DWIDTH 6 0
BBX 5 5 0 0
BITMAP
1000
1400
6000
1000
2540
ENDCHAR
STARTCHAR lslash
ENCODING 322
SWIDTH 709 0
DWIDTH 6 0
BBX 6 5 0 0
BITMAP
1000
1400
6000
1000
1550
ENDCHAR
STARTCHAR Nacute
ENCODING 323
SWIDTH 936 0
DWIDTH 7 0
BBX 6 7 1 0
BITMAP
0500
4010
9010
5410
4510
4150
4060
ENDCHAR
STARTCHAR nacute
ENCODING 324
SWIDTH 933 0
DWIDTH 7 0
BBX 6 7 1 0
BITMAP
0500
0540
9050
4020
4020
4020
4020
ENDCHAR
STARTCHAR Ncommaaccent
ENCODING 325
SWIDTH 936 0
DWIDTH 7 0
BBX 6 8 1 -2
BITMAP
4010
9010
5410
4510
4150
4060
0400
0400
ENDCHAR
STARTCHAR ncommaaccent
ENCODING 326
SWIDTH 933 0
DWIDTH 7 0
BBX 6 8 1 -2
BITMAP
0540
9050
4020
4020
4020
4020
0400
0400
ENDCHAR
STARTCHAR Ncaron
ENCODING 327
SWIDTH 936 0
DWIDTH 7 0
BBX 6 7 1 0
BITMAP
1500
4010
9010
5410
4510
4150
4060
ENDCHAR
STARTCHAR ncaron
ENCODING 328
SWIDTH 933 0
DWIDTH 7 0
BBX 6 7 1 0
BITMAP
1500
0540
9050
4020
4020
4020
4020
ENDCHAR
STARTCHAR napostrophe
ENCODING 329
SWIDTH 1025 0
DWIDTH 8 0
BBX 8 6 0 0
BITMAP
4050
5904
1005
1001
1001
1001
ENDCHAR
STARTCHAR Eng
ENCODING 330
SWIDTH 936 0
DWIDTH 7 0
BBX 6 6 1 0
BITMAP
4010
9020
4820
4160
4060
4590
ENDCHAR
STARTCHAR eng
ENCODING 331
SWIDTH 933 0
DWIDTH 7 0
BBX 6 6 1 0
BITMAP
0540
9050
4020
4020
4010
4590
ENDCHAR
STARTCHAR Omacron
ENCODING 332
SWIDTH 983 0
DWIDTH 8 0
BBX 8 7 0 0
BITMAP
0140
0550
2414
5005
4005
5004
1554
ENDCHAR
STARTCHAR omacron
ENCODING 333
SWIDTH 983 0
DWIDTH 8 0
BBX 8 7 0 0
BITMAP
0140
0550
2414
5005
4005
5004
1554
ENDCHAR
STARTCHAR Obreve
ENCODING 334
SWIDTH 983 0
DWIDTH 8 0
BBX 8 7 0 0
BITMAP
0140
0550
2414
5005
4005
5004
1554
ENDCHAR
STARTCHAR obreve
ENCODING 335
SWIDTH 983 0
DWIDTH 8 0
BBX 8 7 0 0
BITMAP
0140
0550
2414
5005
4005
5004
1554
ENDCHAR
STARTCHAR Ohungarumlaut
ENCODING 336
SWIDTH 983 0
DWIDTH 8 0
BBX 8 7 0 0
BITMAP
0150
0550
2414
5005
4005
5004
1554
ENDCHAR
STARTCHAR ohungarumlaut
ENCODING 337
SWIDTH 983 0
DWIDTH 8 0
BBX 8 7 0 0
BITMAP
0150
0550
2414
5005
4005
5004
1554
ENDCHAR
STARTCHAR OE
ENCODING 338
SWIDTH 1338 0
DWIDTH 11 0
BBX 10 6 0 0
BITMAP
055550
241400
501000
401550
501000
156950
ENDCHAR
STARTCHAR oe
ENCODING 339
SWIDTH 1688 0
DWIDTH 14 0
BBX 13 6 0 0
BITMAP
05501400
24154140
50060040
40065540
50060000
15549540
ENDCHAR
STARTCHAR Racute
ENCODING 340
SWIDTH 833 0
DWIDTH 7 0
BBX 5 7 1 0
BITMAP
0400
5500
4180
4080
9640
4140
4080
ENDCHAR
STARTCHAR racute
ENCODING 341
SWIDTH 609 0
DWIDTH 5 0
BBX 4 7 1 0
BITMAP
14
05
90
40
40
40
40
ENDCHAR
STARTCHAR Rcommaaccent
ENCODING 342
SWIDTH 833 0
DWIDTH 7 0
BBX 5 8 1 -2
BITMAP
5500
4180
4080
9640
4140
4080
0400
0400
ENDCHAR
STARTCHAR rcommaaccent
ENCODING 343
SWIDTH 609 0
DWIDTH 5 0
BBX 4 8 1 -2
BITMAP
05
90
40
40
40
40
40
40
ENDCHAR
STARTCHAR Rcaron
ENCODING 344
SWIDTH 833 0
DWIDTH 7 0
BBX 5 7 1 0
BITMAP
1500
5500
4180
4080
9640
4140
4080
ENDCHAR
STARTCHAR rcaron
ENCODING 345
SWIDTH 609 0
DWIDTH 5 0
BBX 4 7 1 0
BITMAP
54
05
90
40
40
40
40
ENDCHAR
STARTCHAR Sacute
ENCODING 346
SWIDTH 787 0
DWIDTH 6 0
BBX 6 7 0 0
BITMAP
0140
1540
5000
2000
0540
0020
5550
ENDCHAR
STARTCHAR sacute
ENCODING 347
SWIDTH 787 0
DWIDTH 6 0
BBX 6 7 0 0
BITMAP
0140
1540
5000
2000
0540
0020
5550
ENDCHAR
STARTCHAR Scircumflex
ENCODING 348
SWIDTH 787 0
DWIDTH 6 0
BBX 6 7 0 0
BITMAP
0540
1540
5000
2000
0540
0020
5550
ENDCHAR
STARTCHAR scircumflex
ENCODING 349
SWIDTH 787 0
DWIDTH 6 0
BBX 6 7 0 0
BITMAP
0540
1540
5000
2000
0540
0020
5550
ENDCHAR
STARTCHAR Scedilla
ENCODING 350
SWIDTH 787 0
DWIDTH 6 0
BBX 6 8 0 -2
BITMAP
1540
5000
2000
0540
0020
5550
0200
0500
ENDCHAR
STARTCHAR scedilla
ENCODING 351
SWIDTH 787 0
DWIDTH 6 0
BBX 6 8 0 -2
BITMAP
1540
5000
2000
0540
0020
5550
0200
0500
ENDCHAR
STARTCHAR Scaron
ENCODING 352
SWIDTH 787 0
DWIDTH 6 0
BBX 6 7 0 0
BITMAP
0540
1540
5000
2000
0540
0020
5550
ENDCHAR
STARTCHAR scaron
ENCODING 353
SWIDTH 787 0
DWIDTH 6 0
BBX 6 7 0 0
BITMAP
0540
1540
5000
2000
0540
0020
5550
ENDCHAR
STARTCHAR Tcommaaccent
ENCODING 354
SWIDTH 708 0
DWIDTH 6 0
BBX 6 8 0 -2
BITMAP
5550
0400
0400
0400
0400
0400
0400
0400
ENDCHAR
STARTCHAR tcommaaccent
ENCODING 355
SWIDTH 708 0
DWIDTH 6 0
BBX 6 8 0 -2
BITMAP
5550
0400
0400
0400
0400
0400
0400
0400
ENDCHAR
STARTCHAR Tcaron
ENCODING 356
SWIDTH 708 0
DWIDTH 6 0
BBX 6 7 0 0
BITMAP
1500
5550
0400
0400
0400
0400
0400
ENDCHAR
STARTCHAR tcaron
ENCODING 357
SWIDTH 708 0
DWIDTH 6 0
BBX 6 7 0 0
BITMAP
1500
5550
0400
0400
0400
0400
0400
ENDCHAR
STARTCHAR Tbar
ENCODING 358
SWIDTH 708 0
DWIDTH 6 0
BBX 6 6 0 0
BITMAP
5550
0400
1940
0500
0400
0400
ENDCHAR
STARTCHAR tbar
ENCODING 359
SWIDTH 708 0
DWIDTH 6 0
BBX 6 6 0 0
BITMAP
5550
0400
1940
0500
0400
0400
ENDCHAR
STARTCHAR Utilde
ENCODING 360
SWIDTH 891 0
DWIDTH 7 0
BBX 6 7 1 0
BITMAP
1500
0000
4050
4050
4050
4050
5540
ENDCHAR
STARTCHAR utilde
ENCODING 361
SWIDTH 931 0
DWIDTH 7 0
BBX 6 7 1 0
BITMAP
1500
0010
4020
4020
4020
4020
5560
ENDCHAR
STARTCHAR Umacron
ENCODING 362
SWIDTH 891 0
DWIDTH 7 0
BBX 6 7 1 0
BITMAP
1500
0000
4050
4050
4050
4050
5540
ENDCHAR
STARTCHAR umacron
ENCODING 363
SWIDTH 931 0
DWIDTH 7 0
BBX 6 7 1 0
BITMAP
0500
0010
4020
4020
4020
4020
5560
ENDCHAR
STARTCHAR Ubreve
ENCODING 364
SWIDTH 891 0
DWIDTH 7 0
BBX 6 7 1 0
BITMAP
1500
0000
4050
4050
4050
4050
5540
ENDCHAR
STARTCHAR ubreve
ENCODING 365
SWIDTH 931 0
DWIDTH 7 0
BBX 6 7 1 0
BITMAP
1500
0010
4020
4020
4020
4020
5560
ENDCHAR
STARTCHAR Uring
ENCODING 366
SWIDTH 891 0
DWIDTH 7 0
BBX 6 8 1 0
BITMAP
0400
1500
0400
4050
4050
4050
4050
5540
ENDCHAR
STARTCHAR uring
ENCODING 367
SWIDTH 931 0
DWIDTH 7 0
BBX 6 8 1 0
BITMAP
0400
1600
0410
4020
4020
4020
4020
5560
ENDCHAR
STARTCHAR Uhungarumlaut
ENCODING 368
SWIDTH 891 0
DWIDTH 7 0
BBX 6 7 1 0
BITMAP
1500
0000
4050
4050
4050
4050
5540
ENDCHAR
STARTCHAR uhungarumlaut
ENCODING 369
SWIDTH 931 0
DWIDTH 7 0
BBX 6 7 1 0
BITMAP
0500
0010
4020
4020
4020
4020
5560
ENDCHAR
STARTCHAR Uogonek
ENCODING 370
SWIDTH 891 0
DWIDTH 7 0
BBX 6 7 1 -2
BITMAP
4050
4050
4050
4050
5540
0400
0500
ENDCHAR
STARTCHAR uogonek
ENCODING 371
SWIDTH 931 0
DWIDTH 7 0
BBX 6 8 1 -2
BITMAP
0010
4020
4020
4020
4020
5560
0040
0010
ENDCHAR
STARTCHAR Wcircumflex
ENCODING 372
SWIDTH 1266 0
DWIDTH 10 0
BBX 10 7 0 0
BITMAP
005400
401010
50A010
205040
110480
060940
090600
ENDCHAR
STARTCHAR wcircumflex
ENCODING 373
SWIDTH 1266 0
DWIDTH 10 0
BBX 10 7 0 0
BITMAP
005400
401010
50A010
205040
110480
060940
090600
ENDCHAR
STARTCHAR Ycircumflex
ENCODING 374
SWIDTH 763 0
DWIDTH 6 0
BBX 6 7 0 0
BITMAP
0540
4010
1040
1540
0500
0500
0500
ENDCHAR
STARTCHAR ycircumflex
ENCODING 375
SWIDTH 911 0
DWIDTH 7 0
BBX 7 7 0 0
BITMAP
0540
0000
5004
5014
2454
0514
1550
ENDCHAR
STARTCHAR Ydieresis
ENCODING 376
SWIDTH 763 0
DWIDTH 6 0
BBX 6 7 0 0
BITMAP
0500
4010
1040
1540
0500
0500
0500
ENDCHAR
STARTCHAR Zacute
ENCODING 377
SWIDTH 728 0
DWIDTH 6 0
BBX 5 7 0 0
BITMAP
0100
1540
0080
0200
0400
1400
6540
ENDCHAR
STARTCHAR zacute
ENCODING 378
SWIDTH 728 0
DWIDTH 6 0
BBX 5 7 0 0
BITMAP
0100
1540
0080
0200
0400
1400
6540
ENDCHAR
STARTCHAR Zdotaccent
ENCODING 379
SWIDTH 728 0
DWIDTH 6 0
BBX 5 7 0 0
BITMAP
0400
1540
0080
0200
0400
1400
6540
ENDCHAR
STARTCHAR zdotaccent
ENCODING 380
SWIDTH 728 0
DWIDTH 6 0
BBX 5 7 0 0
BITMAP
0400
1540
0080
0200
0400
1400
6540
ENDCHAR
STARTCHAR Zcaron
ENCODING 381
SWIDTH 728 0
DWIDTH 6 0
BBX 5 7 0 0
BITMAP
1500
1540
0080
0200
0400
1400
6540
ENDCHAR
STARTCHAR zcaron
ENCODING 382
SWIDTH 728 0
DWIDTH 6 0
BBX 5 7 0 0
BITMAP
1500
1540
0080
0200
0400
1400
6540
ENDCHAR
STARTCHAR florin
ENCODING 402
SWIDTH 835 0
DWIDTH 7 0
BBX 6 7 0 -1
BITMAP
0050
0140
0640
0200
0100
5800
1000
ENDCHAR
STARTCHAR AEacute
ENCODING 508
SWIDTH 1172 0
DWIDTH 9 0
BBX 9 7 0 0
BITMAP
001400
015540
028000
088000
149540
258000
809540
ENDCHAR
STARTCHAR aeacute
ENCODING 509
SWIDTH 1551 0
DWIDTH 12 0
BBX 12 7 0 0
BITMAP
000500
154050
102505
005401
155955
400800
655555
ENDCHAR
STARTCHAR Oslashacute
ENCODING 510
SWIDTH 983 0
DWIDTH 8 0
BBX 8 8 0 -1
BITMAP
0040
0554
2424
5045
4105
5504
1954
1000
ENDCHAR
STARTCHAR oslashacute
ENCODING 511
SWIDTH 983 0
DWIDTH 8 0
BBX 8 8 0 -1
BITMAP
0040
0554
2424
5045
4105
5504
1954
1000
ENDCHAR
STARTCHAR dotlessj
ENCODING 567
SWIDTH 590 0
DWIDTH 5 0
BBX 4 6 0 0
BITMAP
01
01
01
01
01
55
ENDCHAR
STARTCHAR circumflex
ENCODING 710
SWIDTH 527 0
DWIDTH 4 0
BBX 3 2 1 4
BITMAP
50
44
ENDCHAR
STARTCHAR caron
ENCODING 711
SWIDTH 527 0
DWIDTH 4 0
BBX 3 2 1 4
BITMAP
44
50
ENDCHAR
STARTCHAR breve
ENCODING 728
SWIDTH 527 0
DWIDTH 4 0
BBX 2 1 1 4
BITMAP
50
ENDCHAR
STARTCHAR dotaccent
ENCODING 729
SWIDTH 527 0
DWIDTH 4 0
BBX 1 1 2 4
BITMAP
40
ENDCHAR
STARTCHAR ring
ENCODING 730
SWIDTH 527 0
DWIDTH 4 0
BBX 2 2 1 4
BITMAP
50
50
ENDCHAR
STARTCHAR ogonek
ENCODING 731
SWIDTH 527 0
DWIDTH 4 0
BBX 2 2 1 -2
BITMAP
40
50
ENDCHAR
STARTCHAR tilde
ENCODING 732
SWIDTH 527 0
DWIDTH 4 0
BBX 2 2 1 4
BITMAP
40
50
ENDCHAR
STARTCHAR hungarumlaut
ENCODING 733
SWIDTH 527 0
DWIDTH 4 0
BBX 3 2 1 4
BITMAP
04
50
ENDCHAR
STARTCHAR commaaccent
ENCODING 806
SWIDTH 527 0
DWIDTH 4 0
BBX 1 1 2 -1
BITMAP
40
ENDCHAR
STARTCHAR mu
ENCODING 956
SWIDTH 705 0
DWIDTH 6 0
BBX 5 6 0 -2
BITMAP
1040
1040
1040
6540
4000
4000
ENDCHAR
STARTCHAR Wgrave
ENCODING 7808
SWIDTH 1266 0
DWIDTH 10 0
BBX 10 7 0 0
BITMAP
004000
401010
50A010
205040
110480
060940
090600
ENDCHAR
STARTCHAR wgrave
ENCODING 7809
SWIDTH 1266 0
DWIDTH 10 0
BBX 10 7 0 0
BITMAP
004000
401010
50A010
205040
110480
060940
090600
ENDCHAR
STARTCHAR Wacute
ENCODING 7810
SWIDTH 1266 0
DWIDTH 10 0
BBX 10 7 0 0
BITMAP
001400
401010
50A010
205040
110480
060940
090600
ENDCHAR
STARTCHAR wacute
ENCODING 7811
SWIDTH 1266 0
DWIDTH 10 0
BBX 10 7 0 0
BITMAP
001400
401010
50A010
205040
110480
060940
090600
ENDCHAR
STARTCHAR Wdieresis
ENCODING 7812
SWIDTH 1266 0
DWIDTH 10 0
BBX 10 7 0 0
BITMAP
005000
401010
50A010
205040
110480
060940
090600
ENDCHAR
STARTCHAR wdieresis
ENCODING 7813
SWIDTH 1266 0
DWIDTH 10 0
BBX 10 7 0 0
BITMAP
005000
401010
50A010
205040
110480
060940
090600
ENDCHAR
STARTCHAR Ygrave
ENCODING 7922
SWIDTH 763 0
DWIDTH 6 0
BBX 6 7 0 0
BITMAP
0400
4010
1040
1540
0500
0500
0500
ENDCHAR
STARTCHAR ygrave
ENCODING 7923
SWIDTH 911 0
DWIDTH 7 0
BBX 7 7 0 0
BITMAP
0500
0000
5004
5014
2454
0514
1550
ENDCHAR
STARTCHAR endash
ENCODING 8211
SWIDTH 419 0
DWIDTH 3 0
BBX 3 1 0 2
BITMAP
54
ENDCHAR
STARTCHAR emdash
ENCODING 8212
SWIDTH 1000 0
DWIDTH 8 0
BBX 8 1 0 2
BITMAP
5555
ENDCHAR
STARTCHAR quoteleft
ENCODING 8216
SWIDTH 163 0
DWIDTH 1 0
BBX 1 1 0 4
BITMAP
40
ENDCHAR
STARTCHAR quoteright
ENCODING 8217
SWIDTH 163 0
DWIDTH 1 0
BBX 1 2 0 4
BITMAP
40
40
ENDCHAR
STARTCHAR quotesinglbase
ENCODING 8218
SWIDTH 163 0
DWIDTH 1 0
BBX 1 2 0 -1
BITMAP
40
40
ENDCHAR
STARTCHAR quotedblleft
ENCODING 8220
SWIDTH 303 0
DWIDTH 2 0
BBX 2 1 0 4
BITMAP
50
ENDCHAR
STARTCHAR quotedblright
ENCODING 8221
SWIDTH 303 0
DWIDTH 2 0
BBX 2 2 0 4
BITMAP
40
50
ENDCHAR
STARTCHAR quotedblbase
ENCODING 8222
SWIDTH 303 0
DWIDTH 2 0
BBX 2 2 0 -1
BITMAP
50
50
ENDCHAR
STARTCHAR dagger
ENCODING 8224
SWIDTH 500 0
DWIDTH 4 0
BBX 2 5 1 0
BITMAP
50
A0
50
50
50
ENDCHAR
STARTCHAR daggerdbl
ENCODING 8225
SWIDTH 500 0
DWIDTH 4 0
BBX 2 5 1 0
BITMAP
50
A0
50
50
50
ENDCHAR
STARTCHAR bullet
ENCODING 8226
SWIDTH 352 0
DWIDTH 3 0
BBX 2 2 0 2
BITMAP
10
70
ENDCHAR
STARTCHAR ellipsis
ENCODING 8230
SWIDTH 555 0
DWIDTH 4 0
BBX 4 1 0 0
BITMAP
96
ENDCHAR
STARTCHAR perthousand
ENCODING 8240
SWIDTH 1401 0
DWIDTH 11 0
BBX 11 6 0 0
BITMAP
140000
451000
554000
115450
054544
145854
ENDCHAR
STARTCHAR guilsinglleft
ENCODING 8249
SWIDTH 257 0
DWIDTH 2 0
BBX 2 3 0 1
BITMAP
50
40
10
ENDCHAR
STARTCHAR guilsinglright
ENCODING 8250
SWIDTH 257 0
DWIDTH 2 0
BBX 2 3 0 1
BITMAP
50
20
40
ENDCHAR
STARTCHAR fraction
ENCODING 8260
SWIDTH 200 0
DWIDTH 2 0
BBX 5 5 -2 0
BITMAP
0040
0100
0400
1000
5000
ENDCHAR
STARTCHAR Euro
ENCODING 8364
SWIDTH 833 0
DWIDTH 7 0
BBX 6 6 0 0
BITMAP
0150
1410
6540
6500
2000
0960
ENDCHAR
STARTCHAR trademark
ENCODING 8482
SWIDTH 773 0
DWIDTH 6 0
BBX 6 3 0 3
BITMAP
5400
1550
1550
ENDCHAR
STARTCHAR partialdiff
ENCODING 8706
SWIDTH 790 0
DWIDTH 6 0
BBX 6 6 0 0
BITMAP
0540
0050
0510
5060
4010
2540
ENDCHAR
STARTCHAR minus
ENCODING 8722
SWIDTH 634 0
DWIDTH 5 0
BBX 4 1 1 2
BITMAP
55
ENDCHAR
STARTCHAR uni2215
ENCODING 8725
SWIDTH 200 0
DWIDTH 2 0
BBX 5 5 -2 0
BITMAP
0040
0100
0400
1000
5000
ENDCHAR
STARTCHAR approxequal
ENCODING 8776
SWIDTH 634 0
DWIDTH 5 0
BBX 5 3 0 1
BITMAP
5540
1400
0100
ENDCHAR
STARTCHAR notequal
ENCODING 8800
SWIDTH 634 0
DWIDTH 5 0
BBX 4 5 1 0
BITMAP
04
65
20
64
40
ENDCHAR
STARTCHAR lessequal
ENCODING 8804
SWIDTH 634 0
DWIDTH 5 0
BBX 4 5 1 0
BITMAP
05
54
50
05
55
ENDCHAR
STARTCHAR greaterequal
ENCODING 8805
SWIDTH 634 0
DWIDTH 5 0
BBX 4 5 1 0
BITMAP
40
54
15
40
55
ENDCHAR
STARTCHAR fi
ENCODING 64257
SWIDTH 1104 0
DWIDTH 9 0
BBX 7 6 1 0
BITMAP
1544
9004
4004
9544
4004
4004
ENDCHAR
STARTCHAR fl
ENCODING 64258
SWIDTH 1527 0
DWIDTH 12 0
BBX 11 6 1 0
BITMAP
154400
900400
400400
954400
400400
400654
ENDCHAR
STARTCHAR .notdef
ENCODING -1
SWIDTH 1000 0
DWIDTH 8 0
BBX 1 1 0 0
BITMAP
00
ENDCHAR
ENDFONT
